<?xml version="1.0" encoding="utf-8"?>
<!-- Generator: Adobe Illustrator 19.0.0, SVG Export Plug-In . SVG Version: 6.00 Build 0)  -->
<svg version="1.1" xmlns="http://www.w3.org/2000/svg" xmlns:xlink="http://www.w3.org/1999/xlink" x="0px" y="0px"
	 viewBox="0 0 28.4 28.4" style="enable-background:new 0 0 28.4 28.4;" xml:space="preserve">
<style type="text/css">
	.st0{display:none;}
	.st1{display:inline;fill:#4E8C32;}
	.st2{fill:none;stroke:#FFFFFF;stroke-width:0.5;stroke-linecap:round;stroke-miterlimit:10;}
	.st3{fill:#FFFFFF;}
	.st4{font-family:'AbrilFatface-Regular';}
	.st5{font-size:2.3px;}
</style>
<g id="Calque_2" class="st0">
	<rect id="XMLID_2_" class="st1" width="28.4" height="28.4"/>
</g>
<g id="Calque_1">
	<path id="XMLID_1_" class="st2" d="M26.1,13.5c0-3-2-4.6-3.6-5.5C20,6.7,16.6,6,13.8,6C8.4,5.9,1.2,8.3,2.2,15
		c0.4,2.5,2.6,5.3,4.9,6.3c3,1.3,6.5,1.4,9.7,1.3c0.6,0,1.1,0,1.6-0.1c0.5,0.5,1.2,1.5,1.7,2.8c0.2,0,2-4.2,2-4.2l0,0
		c0.4-0.2,0.7-0.5,1.1-0.8C25.3,18.5,26.1,15.3,26.1,13.5z"/>
	<text id="XMLID_3_" transform="matrix(0.9972 -7.518610e-02 7.518610e-02 0.9972 2.9998 15.0178)"><tspan x="0" y="0" class="st3 st4 st5">Want to learn more ?</tspan><tspan x="5.3" y="2.8" class="st3 st4 st5">click here !</tspan></text>
</g>
</svg>
