<?xml version="1.0" encoding="utf-8"?>
<!-- Generator: Adobe Illustrator 19.0.0, SVG Export Plug-In . SVG Version: 6.00 Build 0)  -->
<svg version="1.1" id="Layer_1" xmlns="http://www.w3.org/2000/svg" xmlns:xlink="http://www.w3.org/1999/xlink" x="0px" y="0px"
	 viewBox="2485 -2485.6 5000 5000" style="enable-background:new 2485 -2485.6 5000 5000;" xml:space="preserve">
<style type="text/css">
	.st0{fill:#553256;}
	.st1{fill:#FFFFFF;}
	.st2{fill:#154F78;}
	.st3{fill:#0F3754;}
	.st4{fill:#99D2D9;}
	.st5{fill:#C2E1DB;}
	.st6{fill:#9CB5DE;}
	.st7{fill:#748DC7;}
	.st8{fill:#8B4E93;}
	.st9{fill:#AE7AB1;}
	.st10{fill:#8C2B3D;}
	.st11{fill:#42130D;}
	.st12{fill:#DB6A27;}
	.st13{fill:#F5A425;}
	.st14{fill:#B82025;}
</style>
<rect x="2485" y="-2485.6" class="st0" width="5000" height="5000"/>
<g>
	<path class="st1" d="M3454.8-138.8c-27.2,0-49,21.5-50.8,48.2c-0.3-0.1-0.5-0.2-0.7-0.2v-48c0-28.3-23.1-51.5-51.5-51.5
		c-28.3,0-51.5,23.2-51.5,51.5v-51.5c0-28.3-23.1-51.5-51.5-51.5c-28.3,0-51.5,23.2-51.5,51.5v-206c0-28.3-23.1-51.5-51.5-51.5
		c-28.3,0-51.5,23.2-51.5,51.5v32.9v276.1v37.2c0,6.3-5.7,11.9-11.8,13.7c-6,1.8-13.3-0.5-16.8-5.8c-37.9-49.4-35.5-98.2-90.1-98.2
		c-12.7,0-24.4,6.7-30.9,17.6c-6.3,10.9-6.5,24.4-0.4,35.5L3105.6,260c4.5,8.2,13.2,13.2,22.5,13.2c45.1,0,204,0,300.9,0
		c42.6,0,77.3-34.6,77.3-77.3c0-138,0-283.3,0-283.3C3506.3-115.6,3483.2-138.8,3454.8-138.8z"/>
	<g>
		<path class="st2" d="M3294.3,303.5h-178c-18.7,0-33.9,15.2-33.9,33.9v135.5c0,18.7,15.2,33.9,33.9,33.9h178.1v-46.2L3294.3,303.5
			L3294.3,303.5z"/>
		<path class="st3" d="M3472.4,303.5h-178v157.1v46.2h178c18.7,0,33.9-15.2,33.9-33.9V337.4C3506.3,318.7,3491.1,303.5,3472.4,303.5
			z"/>
	</g>
	<g>
		<path class="st4" d="M3498,377.4h-206v2137h206c18.2,0,32.9-10.2,32.9-22.7V400.2C3530.9,387.6,3516.2,377.4,3498,377.4z"/>
		<path class="st5" d="M3086.1,377.4c-18.2,0-32.9,10.2-32.9,22.7v2091.5c0,12.6,14.8,22.7,32.9,22.7h206V377.4H3086.1z"/>
	</g>
	<circle class="st2" cx="3473.3" cy="488.2" r="32.9"/>
	<circle class="st2" cx="3473.3" cy="667" r="32.9"/>
	<path class="st2" d="M3506.3,577.6c0,18.2-14.8,32.9-32.9,32.9c-18.2,0-32.9-14.7-32.9-32.9s14.8-32.9,32.9-32.9
		C3491.5,544.6,3506.3,559.4,3506.3,577.6z"/>
</g>
<g>
	<g>
		<path class="st6" d="M3957.5-483.8h-178.1c-18.7,0-33.9,15.2-33.9,33.9v135.5c0,18.7,15.2,33.9,33.9,33.9h178.1v-46.1V-483.8z"/>
		<path class="st7" d="M4135.5-483.8h-178v157.2v46.2h178c18.7,0,33.9-15.2,33.9-33.9v-135.5
			C4169.5-468.6,4154.3-483.8,4135.5-483.8z"/>
	</g>
	<g>
		<path class="st8" d="M4161.2-409.8h-206v2924.2h206c18.2,0,32.9-10.2,32.9-22.7V-387.1C4194.1-399.8,4179.4-409.8,4161.2-409.8z"
			/>
		<path class="st9" d="M3749.2-409.8c-18.2,0-32.9,10.2-32.9,22.7v2878.8c0,12.6,14.8,22.7,32.9,22.7h206V-409.8H3749.2z"/>
	</g>
	<circle class="st2" cx="4136.5" cy="-299.1" r="32.9"/>
	<circle class="st2" cx="4136.5" cy="-120.2" r="32.9"/>
	<path class="st2" d="M4169.5-209.8c0,18.2-14.8,32.9-32.9,32.9c-18.2,0-32.9-14.7-32.9-32.9s14.8-32.9,32.9-32.9
		S4169.5-227.9,4169.5-209.8z"/>
	<path class="st1" d="M3804.5-511.3h327c0,0,122.9-331.2,160.6-432.7c38-102.2-55.5-125.5-90.5-29.2c-25.2,69.4-43.8,78.8-43.8,78.8
		s-38.5-0.1-32.1-40.9c8.8-55.5,20.4-122.6,38-224.8c10.9-63.4-90.5-73-99.3-20.4s-29.2,192.7-35,224.8c-5.8,32.1-43,58.3-46.7-20.4
		c-2.5-52.9-5.8-130.2-5.8-233.6c0-70.1-110.9-61.3-110.9,2.9c0,44.9,3.6,227.7,2.9,262.8c-0.6,35-16.2,46.1-38-2.9
		c-23.4-52.6-48.2-114.8-70.1-166.4c-32.1-75.9-119.2-23.9-99.3,29.2c17.4,46.4,59.5,148.9,93.4,227.7
		c17.4,40.3,39.4,120.4-14.6,78.8c-37.9-29.2-52.5-58.4-96.3-87.6c-43.8-29.2-88,33.6-71,54.5c38,46.7,104.7,120.2,147.9,190.7
		C3752.9-567.4,3804.5-511.3,3804.5-511.3z"/>
</g>
<g>
	<g>
		<path class="st10" d="M4681.3-1337.9h-178.1c-18.7,0-33.9,15.2-33.9,33.9v135.5c0,18.7,15.2,33.9,33.9,33.9h178.1v-46.2V-1337.9z"
			/>
		<path class="st11" d="M4859.3-1337.9h-178v157.1v46.2h178c18.7,0,33.9-15.2,33.9-33.9v-135.5
			C4893.3-1322.7,4878.1-1337.9,4859.3-1337.9z"/>
	</g>
	<g>
		<path class="st12" d="M4885-1264h-206v3778.4h206c18.2,0,32.9-10.2,32.9-22.7v-3733C4917.9-1253.8,4903.2-1264,4885-1264z"/>
		<path class="st13" d="M4473-1264c-18.2,0-32.9,10.2-32.9,22.7v3732.9c0,12.6,14.8,22.7,32.9,22.7h206V-1264H4473z"/>
	</g>
	<circle class="st14" cx="4860.3" cy="-1153.3" r="32.9"/>
	<circle class="st14" cx="4860.3" cy="-974.4" r="32.9"/>
	<path class="st14" d="M4893.3-1063.8c0,18.2-14.8,32.9-32.9,32.9c-18.2,0-32.9-14.7-32.9-32.9c0-18.2,14.8-32.9,32.9-32.9
		C4878.5-1096.8,4893.3-1082,4893.3-1063.8z"/>
	<path class="st1" d="M4953.3-2039.2c-7.2-59.5-115.4-38.8-105.5,18c5.4,58.6,25.2,124.4-18.9,173.1c0-70.3,37-153.3-15.3-213.7
		c-33.4-38.8-61.3-83-98.3-117.2c-27.6-12.3-60.8,5.3-77.2,31c-12.5,19.5-15.3,43.7,1.4,62.8c18.9,24.8,38.8,48.6,58.2,72.6
		c2.7,3.3,5.3,6.6,7.9,9.9c4.7,5.9,9.5,11.7,14.1,17.6c-1.1,8.5-2.3,17-3.4,25.4c-0.6,4.7-1.2,9.3-1.8,14
		c-1.7,13.5-3.3,27.1-4.7,40.9c-23.5-48.7-21.6-115.4-65.8-150.6c-14-1.4-28-2.2-42-2.5c-1.8,0-3.6-0.1-5.4-0.1
		c-38.6-0.7-77.3,1.6-115.9,2.4c-7.8,0.2-15.6,0.3-23.4,0.3c-69.4-4.5-64,119,0,120.8c17.5,0.4,34.9,0.1,52.4-0.4
		c19.6-0.5,39.4-1,59.4-0.5c6.3,19.8,12.6,39.7,18.9,59.5c-23.3-20.1-44.4-60.8-78-58.1c-4.2,0.3-8.5,1.3-13,3.1
		c-54.1,31.6-102.8,73-154.2,110c-24.4,16.1-23.1,43.6-9.6,65.5c14.4,23.4,42.6,40.3,68.2,30.1c33.4-18,63.1-41.5,94.7-62.2
		c38.8,44.2,74.8,92,93.8,147c0.9,10.5-0.6,20.1-3.9,28.7c-16.2,42.5-77,60.1-116.1,30.8c-44-11.2-40.4-57.5-54.6-91.7
		c-4.1-9.9-9.7-18.8-18.5-25.5c-29.3-19-66.6-5.7-83.6,19.9c-9.7,14.6-12.8,33.2-3.9,52.2c0.7,10.8,2.3,21.2,4.5,31.2
		c4.4,19.3,11.4,37.2,20.5,54c34.5,63.4,98.3,110.7,156.2,153.8c3.4,2,6.9,3.9,10.5,5.8c1.6,1.6,3.3,3.1,4.9,4.7l5.7,12.2
		c3.7,6.6,10.4,10.9,17.9,11.7c0.7,0.1,1.5,0.1,2.2,0.1c9.4,0,24.3,0,42.7,0c3,0,6.1,0,9.2,0c32,0,72.6,0,113.1,0c0.8,0,1.6,0,2.4,0
		c14.6,0,29.1,0,43.2,0c20,0,39.1,0,56,0c24.7,0,46.4-13,58.6-32.5c4.7-13.9,8-28.5,10.5-43.3c3.8-22.7,5.4-45.9,6.7-67.8
		c0-6.1,0.1-12.2,0.2-18.3c24.5-97.7,15.3-206,64.5-298.3C4984-1881.4,4958.7-1963.5,4953.3-2039.2z"/>
</g>
<g>
	<g>
		<path class="st5" d="M5385.2,303.5h-178.1c-18.7,0-33.9,15.2-33.9,33.9v135.5c0,18.7,15.2,33.9,33.9,33.9h178.1v-46.2V303.5z"/>
		<path class="st4" d="M5563.2,303.5h-178v157.1v46.2h178c18.7,0,33.9-15.2,33.9-33.9V337.4C5597.2,318.7,5582,303.5,5563.2,303.5z"
			/>
	</g>
	<g>
		<path class="st3" d="M5588.9,377.4h-206v2137h206c18.2,0,32.9-10.2,32.9-22.7V400.2C5621.8,387.6,5607.1,377.4,5588.9,377.4z"/>
		<path class="st2" d="M5176.9,377.4c-18.2,0-32.9,10.2-32.9,22.7v2091.5c0,12.6,14.8,22.7,32.9,22.7h206V377.4H5176.9z"/>
	</g>
	<circle class="st5" cx="5564.2" cy="488.2" r="32.9"/>
	<circle class="st5" cx="5564.2" cy="667" r="32.9"/>
	<path class="st5" d="M5597.2,577.6c0,18.2-14.8,32.9-32.9,32.9c-18.1,0-32.9-14.7-32.9-32.9s14.8-32.9,32.9-32.9
		C5582.4,544.7,5597.2,559.4,5597.2,577.6z"/>
	<path class="st1" d="M5559.6-124.6c-27,0-48.8,21.4-50.6,48c-0.3-0.1-0.5-0.2-0.7-0.2v-47.8c0-28.2-23-51.3-51.3-51.3
		c-28.1,0-51.3,23.1-51.3,51.3v-30.9c2-24,3.7-53.9,3.3-45.8l11.2-204.7c1.5-28.1-20.2-52.5-48.4-54c-28.1-1.5-52.4,20.2-54,48.4
		l-12.1,219.7c-0.1,0.4-0.3,0.8-0.4,1.1c0.1,0,0.2-0.1,0.3-0.1l-0.2,3.9c-0.4,0.2-0.8,0.5-1.3,0.7c-0.7,3.4-1.1,6.9-1.1,10.4v-9.9
		c-1.6,0.8-3.3,1.6-5,2.3l-11.2-204.8c-1.5-28.1-25.9-49.9-54-48.4c-28.2,1.6-49.9,25.9-48.4,54l11.2,204.8
		c-0.5-9.9,2.1,36.5,4.6,60c0.1,0.6,0.1,1.2,0.2,1.8v79.8c0,6.3-5.7,11.8-11.7,13.6s-13.2-0.5-16.7-5.7
		c-37.7-49.2-35.3-97.8-89.7-97.8c-12.6,0-24.3,6.7-30.7,17.5c-6.3,10.9-6.5,24.3-0.4,35.3l160.6,345.7c4.5,8.1,13.1,13.2,22.4,13.2
		H5534c42.5,0,76.9-34.4,76.9-76.9c0-137.4,0-282,0-282C5610.9-101.5,5587.9-124.6,5559.6-124.6z"/>
</g>
<g>
	<path class="st1" d="M6187.7-932.2c5.8-18.1,11.4-36.2,7-55.2c-13.2-27.1-50.4-42.2-79.9-34.4c-9.5,2.5-18.2,7.4-25.1,15.1
		c-2.1,4.9-3.8,9.9-5.3,15c-2.7-6.5-5.3-13-7.9-19.6c4-28.8,8.5-57.5,12.9-86.3c8-51.4,16-102.9,22.1-154.8
		c5.2-57.7-101.5-73.5-113.7-16.6c-1.5,9.5-3,19.1-4.5,28.7c-8.1,52-15.5,104.2-23,156.4c-0.7,4.7-1.4,9.4-2,14.1
		c-6.9,47.7-14,95.3-22,142.8c-20.1-108.4-18.4-220.4-35-329.7c-2.6-5.8-6.3-10.6-10.7-14.5c-33.6-29.9-110.3-7.4-99.5,45.1
		c5,79.3,11.3,158.6,17.1,237.7c3.2,43.9,6.2,87.7,8.7,131.5c0.1,2.6,0.3,5.2,0.5,7.8c-11.2,32.8-39,61.7-49.7,95.5
		c-3.5,11.3-5.2,23.1-3.7,35.7c9.8,67.4,34.8,138.6,84.9,186.6c1,1,2.1,2,3.1,3l6.6,14.3c3.4,6.1,9.7,10.1,16.6,10.8
		c0.7,0.1,1.4,0.1,2.1,0.1c2.6,0,5.7,0,9.2,0c10,0,23.4,0,39,0c29.7,0,67.3,0,104.9,0c0.7,0,1.5,0,2.2,0c32.8,0,65.2,0,92,0
		c0.1,0,0.2,0,0.4,0c22.8-0.1,42.7-12.1,54-30.1c4.3-12.9,7.4-26.5,9.7-40.2c0.6-3.4,1.1-6.9,1.5-10.4
		c54.4-92.5,72.7-205.3,94.3-309.9C6301.4-954.7,6212.9-981.4,6187.7-932.2z M6065.2-916.5c2.6-28.1,6.1-56.2,9.9-84.2
		c2.3,5.6,4.7,11.1,7.3,16.6C6076.7-961.6,6074.4-938.1,6065.2-916.5z"/>
	<g>
		<path class="st9" d="M6029-483.8h-178.1c-18.7,0-33.9,15.2-33.9,33.9v135.5c0,18.7,15.2,33.9,33.9,33.9H6029v-46.1V-483.8z"/>
		<path class="st8" d="M6207-483.8h-178v157.2v46.2h178c18.7,0,33.9-15.2,33.9-33.9v-135.5C6241-468.6,6225.8-483.8,6207-483.8z"/>
	</g>
	<g>
		<path class="st7" d="M6232.7-409.8h-206v2924.2h206c18.2,0,32.9-10.2,32.9-22.7V-387.1C6265.6-399.8,6250.9-409.8,6232.7-409.8z"
			/>
		<path class="st6" d="M5820.8-409.8c-18.2,0-32.9,10.2-32.9,22.7v2878.8c0,12.6,14.8,22.7,32.9,22.7h206V-409.8H5820.8z"/>
	</g>
	<circle class="st8" cx="6208" cy="-299.1" r="32.9"/>
	<circle class="st8" cx="6208" cy="-120.2" r="32.9"/>
	<path class="st8" d="M6241-209.8c0,18.2-14.8,32.9-32.9,32.9c-18.2,0-32.9-14.7-32.9-32.9s14.8-32.9,32.9-32.9
		S6241-227.9,6241-209.8z"/>
</g>
<g>
	<g>
		<path class="st1" d="M6817.2-186.1c8.4-0.8,15.9-5.7,20.1-13.1l6.4-13.7c59.6-58.2,126.5-108.9,201.3-145.7
			c52.1-21.5,14.9-114.9-37.2-100.1c-21.5,7.9-42.4,17.4-62.9,27.9c-37.1,19-72.8,41.6-107.4,65.6c-0.8-167.8-2.5-335.7-5.8-502.7
			c0-25.3-22.8-39.1-45.4-39.7c-20.3-0.5-40.4,9.5-43.9,31.4c-2.5,67.5-2,135.3-2.3,203c-0.2,45.1-0.7,90.2-2.7,135.2
			c-1.6-48-2.4-96.1-2.9-144.1c-0.7-76-0.4-152-0.4-227.9c1.6-57.1-107.5-56.2-105,0.8c-0.6,92.1,0.6,184.3,0.6,276.8
			c0,32-0.2,64-0.6,96.1c-7-33.6-3.3-67.8-4.9-101.6c-0.5-10.3-1.5-20.5-3.4-30.7c-18.2-36.4-83.5-34.7-100,3.3
			c-3.3,25.9-2.2,52.3-0.9,78.4c0.7,13,1.4,26,1.7,39c-1.6,0-5,0-5.8,0c-1-14.4-0.8-29.1-2.2-43.6c-0.9-8.8-2.4-17.4-5.2-25.9
			c-19.9-28.1-72.8-24.8-88.5,6.6c-3.3,87.6,8.3,176.1,8.3,263.8c1.4,24.6,3.3,50.5,7.5,76c2.7,16.6,6.5,32.9,11.7,48.6
			c13.7,21.9,38,36.5,65.7,36.5c97.1,0,256.4,0,301.6,0C6815.5-185.9,6816.3-186,6817.2-186.1z"/>
	</g>
	<g>
		<path class="st2" d="M6638.7-153.2h-178.1c-18.7,0-33.9,15.2-33.9,33.9V16.1c0,18.7,15.2,33.9,33.9,33.9h178.1V3.8V-153.2z"/>
		<path class="st3" d="M6816.7-153.2h-178V3.9v46.2h178c18.7,0,33.9-15.2,33.9-33.9v-135.5C6850.6-138,6835.4-153.2,6816.7-153.2z"
			/>
	</g>
	<g>
		<path class="st4" d="M6842.3-79.3h-206v2593.7h206c18.2,0,32.9-10.2,32.9-22.7V-56.5C6875.3-69.1,6860.5-79.3,6842.3-79.3z"/>
		<path class="st5" d="M6430.4-79.3c-18.2,0-33,10.2-33,22.7v2548.2c0,12.6,14.8,22.7,33,22.7h206V-79.3H6430.4z"/>
	</g>
	<circle class="st2" cx="6817.7" cy="31.5" r="32.9"/>
	<circle class="st2" cx="6817.7" cy="210.4" r="32.9"/>
	<path class="st2" d="M6850.6,120.9c0,18.2-14.8,32.9-32.9,32.9c-18.2,0-32.9-14.7-32.9-32.9s14.8-32.9,32.9-32.9
		C6835.9,88,6850.6,102.7,6850.6,120.9z"/>
</g>
</svg>
