<?xml version="1.0" encoding="utf-8"?>
<!-- Generator: Adobe Illustrator 19.0.0, SVG Export Plug-In . SVG Version: 6.00 Build 0)  -->
<svg version="1.1" xmlns="http://www.w3.org/2000/svg" xmlns:xlink="http://www.w3.org/1999/xlink" x="0px" y="0px"
	 viewBox="0 0 591.5 567.8" style="enable-background:new 0 0 591.5 567.8;" xml:space="preserve">
<style type="text/css">
	.st0{display:none;}
	.st1{display:inline;fill:#C399D1;}
	.st2{opacity:0.6;fill:#6D625D;}
	.st3{opacity:0.7;fill:#49423E;}
	.st4{opacity:0.7;fill:#36312E;}
	.st5{opacity:0.7;fill:#120D0B;}
	.st6{opacity:0.7;fill:#0E0E0E;}
	.st7{opacity:0.7;fill:#492C2C;}
	.st8{fill:none;stroke:#FFFFFF;stroke-width:6;stroke-linecap:round;stroke-linejoin:round;stroke-miterlimit:10;}
	.st9{fill:#7A3636;stroke:#FFFFFF;stroke-width:6;stroke-linecap:round;stroke-linejoin:round;stroke-miterlimit:10;}
</style>
<g id="Calque_2" class="st0">
	<rect class="st1" width="591.5" height="567.8"/>
</g>
<g id="Calque_3">
	<polyline class="st2" points="298.5,280.3 357.5,314.6 357.5,436.2 357.6,454.1 444,364.4 459.5,204.3 383.5,135.3 298.5,191.3 
		298.5,280.3 335,301.6 	"/>
	<polygon class="st3" points="79.3,329.3 152.8,364.4 137.3,204.3 	"/>
	<polygon class="st4" points="152.8,364.4 268.8,484.8 159.3,480.3 79.3,329.3 	"/>
	<polygon class="st5" points="137.3,204.3 113.3,135.3 129.3,97.3 176.3,97.3 213.3,135.3 	"/>
	<polygon class="st3" points="213.3,135.3 298.3,191.3 383.8,135.2 	"/>
	<polyline class="st2" points="261.7,301.6 298.3,280.3 298.3,191.3 213.3,135.3 137.3,204.3 152.8,364.4 239.2,454.1 239.3,314.6 	
		"/>
	<polygon class="st6" points="213.3,287.4 225.4,273.4 239.5,284.3 225.6,299.2 	"/>
	<polygon class="st5" points="459.8,204.3 483.8,135.3 467.8,97.3 420.8,97.3 383.8,135.3 	"/>
	<polygon class="st6" points="384.7,288.6 372.6,274.6 358.5,285.5 372.5,300.4 	"/>
	<polygon class="st3" points="517.8,332.4 444.3,367.4 459.8,207.4 	"/>
	<polygon class="st4" points="444.3,364.4 328.3,484.8 437.8,480.3 517.8,329.3 	"/>
	<path class="st7" d="M298.8,436.2"/>
	<polyline class="st5" points="268.8,384.4 268.8,404.8 298.8,419.7 328,404.7 328.3,384.4 268.8,384.4 	"/>
	<polyline class="st5" points="239.3,436.3 357.8,436.2 298.8,457.7 239.3,436.3 	"/>
</g>
<g id="Calque_4">
	<polygon class="st4" points="298.3,280.3 357.8,314.5 357.8,436.2 298.8,436.3 298.8,419.7 328,404.7 328.3,384.4 268.8,384.4 
		268.8,404.8 298.8,419.7 298.8,436.3 239.3,436.3 239.3,314.6 	"/>
	<polyline class="st3" points="357.8,436.2 357.6,454.1 328.3,484.8 298.8,489.2 268.8,484.8 239.2,454.1 239.3,436.3 298.8,457.7 	
		"/>
</g>
<g id="Calque_1">
	
		<image style="display:none;overflow:visible;" width="736" height="552" xlink:href="4965B3057C1F0E40.jpg"  transform="matrix(1 0 0 1 -58.2081 23.2084)">
	</image>
	<g>
		<line class="st8" x1="298.8" y1="135.2" x2="383.8" y2="135.2"/>
		<line class="st8" x1="298.8" y1="191.2" x2="383.8" y2="135.2"/>
		<line class="st8" x1="383.8" y1="135.2" x2="420.8" y2="97.2"/>
		<line class="st8" x1="467.8" y1="97.2" x2="420.8" y2="97.2"/>
		<line class="st8" x1="467.8" y1="97.2" x2="483.8" y2="135.2"/>
		<line class="st8" x1="483.8" y1="135.2" x2="459.8" y2="204.2"/>
		<line class="st8" x1="383.8" y1="135.2" x2="459.8" y2="204.2"/>
		<line class="st8" x1="459.8" y1="204.2" x2="517.8" y2="329.2"/>
		<line class="st8" x1="517.8" y1="329.2" x2="437.8" y2="480.2"/>
		<line class="st8" x1="437.8" y1="480.2" x2="298.8" y2="489.2"/>
		<line class="st8" x1="298.8" y1="191.2" x2="298.8" y2="280.2"/>
		<line class="st8" x1="298.8" y1="280.2" x2="357.8" y2="314.5"/>
		<line class="st8" x1="357.8" y1="314.5" x2="357.8" y2="454.1"/>
		<line class="st8" x1="328.3" y1="484.7" x2="444.3" y2="364.3"/>
		<line class="st8" x1="444.3" y1="364.3" x2="517.8" y2="329.2"/>
		<line class="st8" x1="444.3" y1="364.3" x2="459.8" y2="204.2"/>
		<line class="st8" x1="357.8" y1="436.2" x2="298.8" y2="436.2"/>
		<line class="st8" x1="353.5" y1="436.2" x2="298.8" y2="457.7"/>
		<line class="st8" x1="335.3" y1="301.5" x2="371.6" y2="273.3"/>
		<line class="st8" x1="371.6" y1="273.3" x2="386.3" y2="287.4"/>
		<line class="st8" x1="386.3" y1="287.4" x2="371.6" y2="299.2"/>
		<line class="st8" x1="371.6" y1="299.2" x2="357.8" y2="287.4"/>
		<line class="st8" x1="298.8" y1="436.2" x2="298.8" y2="419.7"/>
		<line class="st8" x1="298.8" y1="419.7" x2="328.3" y2="404.7"/>
		<line class="st8" x1="328.3" y1="404.7" x2="328.3" y2="384.3"/>
		<line class="st8" x1="328.3" y1="384.3" x2="298.8" y2="384.3"/>
		<line class="st8" x1="213.3" y1="135.3" x2="298.3" y2="135.3"/>
		<line class="st8" x1="298.3" y1="191.3" x2="213.3" y2="135.3"/>
		<line class="st9" x1="213.3" y1="135.3" x2="176.3" y2="97.3"/>
		<line class="st9" x1="129.3" y1="97.3" x2="176.3" y2="97.3"/>
		<line class="st9" x1="113.3" y1="135.3" x2="129.3" y2="97.3"/>
		<line class="st9" x1="113.3" y1="135.3" x2="137.3" y2="204.3"/>
		<line class="st9" x1="213.3" y1="135.3" x2="137.3" y2="204.3"/>
		<line class="st8" x1="137.3" y1="204.3" x2="79.3" y2="329.3"/>
		<line class="st8" x1="79.3" y1="329.3" x2="159.3" y2="480.3"/>
		<line class="st8" x1="159.3" y1="480.3" x2="298.3" y2="489.3"/>
		<line class="st8" x1="298.3" y1="191.3" x2="298.3" y2="280.3"/>
		<line class="st8" x1="298.3" y1="280.3" x2="239.3" y2="314.6"/>
		<line class="st8" x1="239.3" y1="314.6" x2="239.3" y2="454.2"/>
		<line class="st8" x1="268.8" y1="484.8" x2="152.8" y2="364.4"/>
		<line class="st8" x1="152.8" y1="364.4" x2="79.3" y2="329.3"/>
		<line class="st8" x1="152.8" y1="364.4" x2="137.3" y2="204.3"/>
		<line class="st8" x1="239.3" y1="436.3" x2="298.3" y2="436.3"/>
		<line class="st8" x1="243.6" y1="436.3" x2="298.3" y2="457.8"/>
		<line class="st8" x1="261.7" y1="301.6" x2="225.4" y2="273.4"/>
		<line class="st8" x1="225.4" y1="273.4" x2="210.8" y2="287.5"/>
		<line class="st8" x1="210.8" y1="287.5" x2="225.4" y2="299.3"/>
		<line class="st8" x1="225.4" y1="299.3" x2="239.3" y2="287.5"/>
		<line class="st8" x1="298.3" y1="436.3" x2="298.3" y2="419.8"/>
		<line class="st8" x1="298.3" y1="419.8" x2="268.8" y2="404.8"/>
		<line class="st8" x1="268.8" y1="404.8" x2="268.8" y2="384.4"/>
		<line class="st8" x1="268.8" y1="384.4" x2="298.3" y2="384.4"/>
	</g>
</g>
</svg>
